<?xml version="1.0" encoding="UTF-8"?><svg xmlns="http://www.w3.org/2000/svg" xmlns:xlink="http://www.w3.org/1999/xlink" contentScriptType="text/ecmascript" width="375" zoomAndPan="magnify" contentStyleType="text/css" viewBox="0 0 375 374.999991" height="374.999991" preserveAspectRatio="xMidYMid meet" version="1.0"><defs><clipPath id="clip-0"><path d="M 0.0664062 242 L 187.371094 242 L 187.371094 299.324219 L 0.0664062 299.324219 Z M 0.0664062 242 " clip-rule="nonzero"/></clipPath><clipPath id="clip-1"><path d="M 124 68.324219 L 175 68.324219 L 175 128 L 124 128 Z M 124 68.324219 " clip-rule="nonzero"/></clipPath><clipPath id="clip-2"><path d="M 187.371094 242 L 374.898438 242 L 374.898438 299.324219 L 187.371094 299.324219 Z M 187.371094 242 " clip-rule="nonzero"/></clipPath><clipPath id="clip-3"><path d="M 200 68.324219 L 251 68.324219 L 251 128 L 200 128 Z M 200 68.324219 " clip-rule="nonzero"/></clipPath></defs><path fill="rgb(100%, 100%, 100%)" d="M 186.175781 279.304688 C 186.441406 279.34375 186.703125 279.375 186.972656 279.410156 L 186.925781 280.058594 C 186.675781 280.042969 186.421875 280.035156 186.175781 280.015625 C 186 280.011719 185.820312 279.996094 185.644531 279.984375 C 183.070312 279.804688 180.503906 279.371094 177.992188 278.710938 C 175.066406 277.925781 172.222656 276.824219 169.492188 275.484375 C 166.757812 274.144531 164.160156 272.53125 161.691406 270.75 C 159.222656 268.960938 156.890625 266.976562 154.695312 264.855469 C 154.132812 264.3125 153.582031 263.761719 153.039062 263.203125 C 151.6875 261.800781 150.386719 260.34375 149.15625 258.828125 C 147.214844 256.484375 145.410156 254.007812 143.746094 251.457031 C 143.5625 251.167969 143.378906 250.886719 143.199219 250.597656 C 142.367188 249.292969 141.566406 247.960938 140.804688 246.609375 C 138.558594 242.621094 136.609375 238.453125 134.960938 234.164062 C 132.746094 228.417969 131.0625 222.453125 129.953125 216.367188 C 128.84375 210.277344 128.292969 204.066406 128.308594 197.824219 C 128.335938 191.589844 128.976562 185.328125 130.195312 179.148438 C 131.410156 172.976562 133.277344 166.910156 135.683594 161.050781 L 137.769531 155.957031 L 143.269531 158.050781 C 144.816406 158.808594 146.359375 159.585938 147.867188 160.421875 C 149.375 161.25 150.871094 162.105469 152.335938 163.027344 C 153.804688 163.925781 155.234375 164.894531 156.644531 165.882812 C 158.050781 166.886719 159.4375 167.90625 160.773438 168.988281 C 166.148438 173.292969 170.960938 178.28125 174.964844 183.792969 C 178.96875 189.300781 182.175781 195.328125 184.480469 201.625 C 185.636719 204.765625 186.574219 207.980469 187.269531 211.234375 C 187.617188 212.863281 187.914062 214.5 188.132812 216.148438 C 188.351562 217.800781 188.515625 219.425781 188.542969 221.152344 L 186.480469 221.28125 C 186.257812 219.765625 185.898438 218.183594 185.5 216.664062 C 185.097656 215.128906 184.632812 213.613281 184.109375 212.117188 C 183.066406 209.121094 181.808594 206.214844 180.367188 203.421875 C 177.480469 197.832031 173.847656 192.691406 169.621094 188.179688 C 165.394531 183.667969 160.574219 179.789062 155.367188 176.59375 C 154.074219 175.792969 152.734375 175.046875 151.398438 174.316406 C 150.042969 173.613281 148.691406 172.921875 147.296875 172.292969 C 146.234375 171.796875 145.15625 171.332031 144.070312 170.890625 C 142.574219 174.34375 141.300781 177.902344 140.28125 181.550781 C 138.769531 186.96875 137.75 192.539062 137.285156 198.203125 C 136.820312 203.859375 136.886719 209.585938 137.476562 215.28125 C 138.058594 220.972656 139.1875 226.632812 140.828125 232.152344 C 142.480469 237.679688 144.648438 243.058594 147.359375 248.175781 C 147.535156 248.503906 147.710938 248.828125 147.886719 249.15625 C 148.769531 250.753906 149.695312 252.328125 150.6875 253.871094 C 152.109375 256.082031 153.640625 258.226562 155.300781 260.269531 C 155.902344 261.019531 156.527344 261.757812 157.171875 262.484375 C 157.820312 263.222656 158.496094 263.945312 159.179688 264.652344 C 160.515625 266.03125 161.910156 267.347656 163.375 268.59375 C 165.597656 270.476562 167.949219 272.207031 170.464844 273.6875 C 172.972656 275.171875 175.625 276.445312 178.386719 277.425781 C 180.835938 278.273438 183.378906 278.902344 185.957031 279.277344 C 186.03125 279.285156 186.101562 279.296875 186.175781 279.304688 " fill-opacity="1" fill-rule="nonzero"/><g clip-path="url(#clip-0)"><path fill="rgb(100%, 100%, 100%)" d="M 186.464844 279.734375 C 186.371094 279.832031 186.273438 279.933594 186.175781 280.015625 C 185.671875 280.507812 185.152344 280.972656 184.613281 281.414062 C 183.914062 281.988281 183.1875 282.523438 182.445312 283.03125 C 180.921875 284.070312 179.304688 284.972656 177.636719 285.785156 C 174.324219 287.410156 170.816406 288.644531 167.261719 289.6875 C 163.707031 290.726562 160.078125 291.519531 156.425781 292.167969 C 152.773438 292.8125 149.09375 293.304688 145.402344 293.667969 C 138.015625 294.402344 130.589844 294.652344 123.171875 294.546875 C 115.753906 294.429688 108.351562 293.9375 100.988281 293.128906 C 86.285156 291.484375 71.730469 288.539062 57.800781 284 C 50.851562 281.710938 44.0625 279.019531 37.605469 275.8125 C 35.769531 274.898438 33.949219 273.9375 32.171875 272.9375 C 34.886719 272.492188 37.578125 271.910156 40.25 271.308594 C 42.203125 270.761719 44.171875 270.242188 46.109375 269.679688 L 51.832031 267.707031 L 57.382812 265.464844 L 62.78125 263.03125 L 73.234375 258.109375 C 74.964844 257.351562 76.679688 256.523438 78.410156 255.824219 L 81.019531 254.765625 C 81.886719 254.417969 82.75 254.046875 83.640625 253.765625 L 86.28125 252.851562 C 87.167969 252.566406 88.035156 252.203125 88.9375 251.992188 L 94.328125 250.515625 L 99.8125 249.40625 C 100.734375 249.1875 101.648438 249.109375 102.5625 248.980469 L 105.320312 248.621094 C 106.242188 248.503906 107.148438 248.359375 108.09375 248.269531 L 110.980469 248.097656 L 113.867188 247.921875 L 115.316406 247.832031 L 116.035156 247.789062 L 116.082031 247.785156 L 116.65625 247.785156 C 118.527344 247.773438 120.410156 247.734375 122.28125 247.84375 C 124.160156 247.882812 126.03125 248.082031 127.902344 248.234375 C 131.640625 248.664062 135.363281 249.265625 139.027344 250.15625 C 140.609375 250.546875 142.183594 250.980469 143.746094 251.457031 C 145.796875 252.074219 147.835938 252.765625 149.847656 253.539062 C 150.128906 253.640625 150.40625 253.753906 150.6875 253.871094 C 149.695312 252.328125 148.769531 250.753906 147.886719 249.15625 C 145.558594 248.214844 143.203125 247.367188 140.804688 246.609375 L 140.0625 246.375 C 136.28125 245.230469 132.417969 244.378906 128.519531 243.710938 C 126.558594 243.429688 124.601562 243.113281 122.625 242.960938 C 120.652344 242.730469 118.671875 242.65625 116.683594 242.558594 L 116.3125 242.539062 L 116.128906 242.527344 L 116.085938 242.527344 C 116.027344 242.527344 116.140625 242.519531 115.945312 242.527344 L 115.136719 242.527344 L 113.6875 242.535156 L 107.902344 242.558594 C 106.917969 242.601562 105.90625 242.691406 104.910156 242.757812 L 101.90625 242.976562 C 100.902344 243.058594 99.894531 243.097656 98.917969 243.265625 L 93 244.125 C 91.046875 244.515625 89.09375 244.953125 87.140625 245.367188 C 86.15625 245.550781 85.214844 245.878906 84.246094 246.132812 L 81.363281 246.949219 C 80.398438 247.207031 79.464844 247.542969 78.523438 247.855469 L 75.703125 248.816406 C 73.820312 249.457031 72.015625 250.207031 70.167969 250.898438 C 68.332031 251.605469 66.554688 252.347656 64.746094 253.078125 L 59.410156 255.242188 L 54.125 257.273438 L 48.839844 259.066406 L 43.523438 260.570312 L 38.152344 261.738281 C 34.53125 262.332031 30.925781 262.90625 27.25 263.078125 L 24.507812 263.273438 C 23.597656 263.34375 22.664062 263.300781 21.742188 263.3125 L 16.21875 263.332031 L 0.0664062 263.390625 L 12.867188 273.3125 C 19.371094 277.960938 26.355469 281.648438 33.503906 284.707031 C 40.65625 287.753906 47.988281 290.167969 55.398438 292.136719 C 70.234375 296.035156 85.371094 298.175781 100.511719 298.984375 C 108.09375 299.378906 115.675781 299.4375 123.234375 299.117188 C 130.796875 298.785156 138.34375 298.09375 145.824219 296.90625 C 149.558594 296.316406 153.277344 295.605469 156.960938 294.726562 C 160.636719 293.84375 164.289062 292.824219 167.863281 291.546875 C 171.429688 290.277344 174.9375 288.804688 178.25 286.941406 C 179.90625 286.011719 181.507812 284.984375 183.019531 283.824219 C 184.507812 282.679688 185.917969 281.421875 187.15625 279.988281 C 187.167969 279.976562 187.175781 279.964844 187.1875 279.949219 L 187.363281 279.757812 C 187.363281 279.757812 186.480469 279.722656 186.464844 279.734375 " fill-opacity="1" fill-rule="nonzero"/></g><path fill="rgb(100%, 100%, 100%)" d="M 186.371094 279.644531 L 185.644531 279.984375 L 183.070312 281.183594 C 182.46875 281.492188 181.824219 281.71875 181.191406 281.96875 L 179.289062 282.691406 C 178.039062 283.214844 176.734375 283.585938 175.449219 283.988281 L 173.511719 284.582031 C 172.867188 284.761719 172.207031 284.902344 171.554688 285.066406 L 169.59375 285.539062 L 168.613281 285.777344 L 167.621094 285.953125 L 163.660156 286.660156 L 159.671875 287.160156 C 158.351562 287.332031 157 287.382812 155.671875 287.5 C 154.347656 287.625 153.007812 287.65625 151.671875 287.699219 C 150.335938 287.734375 149.003906 287.789062 147.664062 287.753906 C 146.324219 287.726562 145 287.746094 143.667969 287.683594 L 139.671875 287.488281 C 137.003906 287.277344 134.351562 287.082031 131.707031 286.734375 L 129.722656 286.503906 L 127.738281 286.214844 C 126.421875 286.003906 125.101562 285.847656 123.789062 285.601562 L 119.855469 284.902344 L 115.9375 284.105469 C 113.332031 283.535156 110.734375 282.957031 108.15625 282.285156 C 106.871094 281.964844 105.574219 281.621094 104.292969 281.265625 C 103.015625 280.90625 101.726562 280.5625 100.453125 280.171875 C 97.898438 279.429688 95.367188 278.628906 92.84375 277.796875 C 91.867188 277.46875 90.902344 277.109375 89.933594 276.777344 C 90.492188 276.53125 91.039062 276.289062 91.574219 276.03125 L 95.476562 274.179688 C 98.015625 272.949219 100.46875 271.765625 102.910156 270.6875 C 105.347656 269.59375 107.789062 268.640625 110.265625 267.753906 L 114.023438 266.53125 L 117.859375 265.507812 C 119.136719 265.136719 120.464844 264.917969 121.777344 264.632812 C 123.089844 264.382812 124.414062 264.042969 125.730469 263.878906 L 129.679688 263.285156 C 130.96875 263.050781 132.445312 262.96875 133.832031 262.816406 L 138.058594 262.414062 L 138.257812 262.394531 L 138.265625 262.394531 L 138.460938 262.378906 L 138.953125 262.355469 L 139.9375 262.292969 C 140.597656 262.242188 141.257812 262.242188 141.910156 262.238281 C 144.546875 262.203125 147.214844 262.339844 149.859375 262.699219 C 150.925781 262.839844 151.980469 263.003906 153.039062 263.203125 C 154.628906 263.488281 156.207031 263.84375 157.777344 264.261719 C 158.246094 264.382812 158.71875 264.515625 159.179688 264.652344 C 158.496094 263.945312 157.820312 263.222656 157.171875 262.484375 C 156.527344 261.757812 155.902344 261.019531 155.300781 260.269531 C 153.753906 259.824219 152.183594 259.441406 150.613281 259.113281 C 150.128906 259.011719 149.640625 258.917969 149.15625 258.828125 C 146.855469 258.402344 144.519531 258.128906 142.195312 257.984375 C 140.785156 257.867188 139.375 257.867188 137.949219 257.847656 L 133.71875 257.953125 C 130.902344 257.964844 128.082031 258.234375 125.257812 258.433594 C 123.847656 258.5 122.453125 258.75 121.050781 258.910156 C 119.652344 259.101562 118.242188 259.226562 116.859375 259.519531 L 112.6875 260.296875 L 108.574219 261.300781 C 105.851562 262.046875 103.144531 262.867188 100.484375 263.828125 C 97.828125 264.769531 95.203125 265.808594 92.582031 266.851562 L 88.640625 268.398438 C 87.328125 268.914062 86 269.386719 84.675781 269.875 C 83.351562 270.351562 82.007812 270.761719 80.667969 271.214844 C 79.320312 271.644531 77.949219 271.972656 76.589844 272.355469 C 75.917969 272.558594 75.222656 272.703125 74.539062 272.847656 L 72.46875 273.289062 C 71.09375 273.617188 69.699219 273.796875 68.300781 274.007812 C 65.523438 274.507812 62.695312 274.644531 59.894531 274.929688 C 62.304688 276.230469 64.863281 277.214844 67.417969 278.195312 C 69.980469 279.15625 72.558594 280.070312 75.167969 280.910156 C 80.371094 282.609375 85.636719 284.117188 90.957031 285.441406 C 93.617188 286.101562 96.277344 286.730469 98.957031 287.289062 C 100.292969 287.589844 101.636719 287.847656 102.980469 288.113281 C 104.320312 288.382812 105.671875 288.628906 107.019531 288.859375 C 109.714844 289.347656 112.429688 289.742188 115.136719 290.125 L 119.214844 290.632812 L 123.304688 291.046875 C 124.664062 291.199219 126.035156 291.261719 127.402344 291.371094 L 129.449219 291.511719 L 131.503906 291.601562 C 134.242188 291.746094 136.984375 291.746094 139.71875 291.75 L 143.835938 291.648438 C 145.203125 291.609375 146.574219 291.484375 147.9375 291.40625 C 149.3125 291.339844 150.671875 291.183594 152.035156 291.03125 C 153.402344 290.898438 154.765625 290.761719 156.117188 290.53125 C 157.46875 290.308594 158.835938 290.152344 160.179688 289.878906 L 164.210938 289.054688 L 168.203125 288.035156 L 169.203125 287.773438 L 170.183594 287.460938 L 172.144531 286.824219 C 172.796875 286.613281 173.457031 286.421875 174.09375 286.179688 L 176.015625 285.429688 C 177.296875 284.933594 178.585938 284.457031 179.816406 283.835938 L 181.683594 282.957031 C 182.300781 282.660156 182.933594 282.386719 183.523438 282.027344 L 184.613281 281.414062 L 187.113281 280.011719 L 187.15625 279.988281 L 187.460938 279.816406 L 186.371094 279.644531 " fill-opacity="1" fill-rule="nonzero"/><path fill="rgb(100%, 100%, 100%)" d="M 162.234375 176.636719 C 161.753906 174.675781 161.09375 172.742188 160.371094 170.847656 C 159.640625 168.949219 158.808594 167.09375 157.933594 165.269531 C 157.472656 164.367188 157.039062 163.453125 156.542969 162.570312 L 155.820312 161.238281 L 155.054688 159.929688 C 154.039062 158.1875 152.941406 156.496094 151.792969 154.839844 C 150.644531 153.191406 149.4375 151.585938 148.175781 150.027344 C 147.566406 149.238281 146.886719 148.496094 146.238281 147.734375 C 145.597656 146.964844 144.910156 146.242188 144.222656 145.511719 L 143.203125 144.421875 L 142.136719 143.371094 C 141.417969 142.679688 140.734375 141.957031 139.976562 141.300781 L 137.757812 139.3125 L 135.457031 137.417969 C 134.703125 136.777344 133.878906 136.210938 133.09375 135.609375 L 131.910156 134.714844 C 131.507812 134.425781 131.089844 134.15625 130.6875 133.875 C 129.863281 133.320312 129.054688 132.75 128.226562 132.210938 L 125.703125 130.65625 C 124.875 130.121094 124 129.664062 123.136719 129.183594 C 122.269531 128.714844 121.425781 128.203125 120.535156 127.769531 C 118.757812 126.910156 117.023438 125.988281 115.199219 125.230469 L 112.488281 124.058594 L 109.734375 123 C 107.914062 122.257812 106.011719 121.707031 104.15625 121.066406 C 103.230469 120.742188 102.273438 120.5 101.328125 120.230469 L 98 119.308594 C 97.027344 122.46875 97.601562 120.550781 96.765625 123.742188 C 95.902344 126.933594 95.152344 130.140625 94.441406 133.355469 C 94.113281 134.96875 93.785156 136.582031 93.480469 138.203125 C 93.210938 139.824219 92.886719 141.4375 92.664062 143.066406 C 92.433594 144.691406 92.164062 146.316406 91.996094 147.949219 C 91.800781 149.574219 91.609375 151.207031 91.492188 152.839844 L 91.289062 155.292969 L 91.164062 157.746094 C 91.128906 158.5625 91.066406 159.382812 91.054688 160.199219 L 91.019531 162.652344 C 90.96875 164.292969 91.035156 165.921875 91.074219 167.558594 C 91.082031 169.199219 91.246094 170.816406 91.339844 172.453125 L 91.425781 173.675781 L 91.5625 174.890625 L 91.828125 177.324219 C 91.902344 178.140625 92.046875 178.941406 92.167969 179.746094 L 92.554688 182.164062 C 92.824219 183.773438 93.203125 185.359375 93.523438 186.964844 C 93.898438 188.550781 94.339844 190.117188 94.746094 191.703125 C 95.21875 193.261719 95.742188 194.808594 96.230469 196.363281 L 97.988281 200.941406 L 100.011719 205.40625 L 102.300781 209.753906 L 104.851562 213.960938 C 105.753906 215.328125 106.722656 216.664062 107.65625 218.019531 C 108.101562 218.710938 108.660156 219.320312 109.15625 219.976562 L 110.695312 221.914062 C 110.957031 222.234375 111.199219 222.566406 111.46875 222.878906 L 112.300781 223.796875 L 113.957031 225.640625 C 115.03125 226.902344 116.25 228.027344 117.425781 229.191406 L 119.199219 230.9375 L 121.078125 232.574219 C 123.535156 234.820312 126.214844 236.804688 128.867188 238.835938 L 133 241.675781 L 134.035156 242.382812 L 135.105469 243.035156 L 139.394531 245.652344 C 140.113281 246.09375 140.867188 246.460938 141.601562 246.871094 L 146.035156 249.269531 L 145.191406 251.042969 L 140.5625 248.867188 C 139.796875 248.496094 139.007812 248.160156 138.257812 247.757812 L 136 246.546875 L 133.738281 245.339844 L 132.609375 244.730469 L 131.503906 244.070312 L 127.113281 241.402344 C 124.277344 239.472656 121.398438 237.582031 118.726562 235.402344 L 116.683594 233.8125 L 114.742188 232.109375 C 113.449219 230.960938 112.113281 229.859375 110.914062 228.609375 L 109.074219 226.777344 L 108.152344 225.859375 C 107.847656 225.546875 107.570312 225.21875 107.277344 224.898438 L 105.546875 222.949219 C 104.980469 222.292969 104.363281 221.675781 103.847656 220.976562 C 102.785156 219.605469 101.683594 218.25 100.644531 216.851562 C 99.660156 215.417969 98.65625 213.988281 97.683594 212.539062 L 94.984375 208.046875 L 92.558594 203.394531 L 90.398438 198.605469 C 89.777344 196.972656 89.125 195.34375 88.523438 193.695312 C 87.992188 192.027344 87.417969 190.367188 86.925781 188.6875 C 86.484375 186.992188 85.980469 185.308594 85.589844 183.601562 L 85.035156 181.03125 C 84.855469 180.175781 84.652344 179.320312 84.523438 178.453125 L 83.871094 174.566406 L 83.707031 173.269531 C 83.507812 171.53125 83.234375 169.792969 83.125 168.046875 C 82.988281 166.308594 82.820312 164.5625 82.773438 162.816406 L 82.660156 160.195312 C 82.628906 159.324219 82.640625 158.453125 82.628906 157.578125 L 82.613281 154.957031 L 82.6875 152.34375 C 82.714844 150.597656 82.820312 148.859375 82.929688 147.121094 C 83.007812 145.375 83.195312 143.648438 83.339844 141.910156 C 83.488281 140.171875 83.726562 138.453125 83.914062 136.722656 C 84.140625 135 84.390625 133.28125 84.640625 131.5625 C 85.195312 128.132812 85.796875 124.707031 86.515625 121.320312 C 87.203125 117.921875 88.015625 114.558594 88.84375 111.199219 L 90.148438 105.90625 L 95.632812 107.347656 C 97.65625 108.0625 99.679688 108.742188 101.679688 109.480469 L 104.660156 110.671875 C 105.648438 111.074219 106.648438 111.445312 107.617188 111.90625 C 109.5625 112.808594 111.53125 113.625 113.417969 114.636719 L 116.269531 116.09375 L 119.058594 117.675781 C 120.929688 118.695312 122.710938 119.890625 124.515625 121.019531 C 125.414062 121.585938 126.273438 122.234375 127.148438 122.835938 C 128.019531 123.449219 128.902344 124.039062 129.734375 124.710938 L 132.261719 126.664062 C 133.085938 127.335938 133.886719 128.039062 134.699219 128.722656 C 135.101562 129.070312 135.511719 129.402344 135.90625 129.761719 L 137.070312 130.847656 C 137.839844 131.582031 138.644531 132.269531 139.375 133.035156 L 141.601562 135.308594 L 143.726562 137.660156 C 144.449219 138.433594 145.089844 139.277344 145.765625 140.082031 L 146.769531 141.308594 L 147.722656 142.570312 C 148.359375 143.410156 149 144.246094 149.582031 145.121094 C 150.175781 145.992188 150.800781 146.835938 151.351562 147.730469 C 152.496094 149.492188 153.570312 151.292969 154.574219 153.128906 C 155.578125 154.964844 156.523438 156.828125 157.378906 158.730469 L 158.019531 160.152344 L 158.613281 161.601562 C 159.019531 162.554688 159.367188 163.539062 159.738281 164.507812 C 160.4375 166.464844 161.074219 168.441406 161.613281 170.441406 C 162.144531 172.445312 162.597656 174.464844 162.878906 176.527344 L 162.234375 176.636719 " fill-opacity="1" fill-rule="nonzero"/><g clip-path="url(#clip-1)"><path fill="rgb(100%, 100%, 100%)" d="M 171.378906 109.308594 C 170.882812 108.515625 170.332031 107.691406 169.789062 106.898438 C 169.242188 106.097656 168.671875 105.304688 168.101562 104.519531 C 166.949219 102.953125 165.757812 101.425781 164.519531 99.933594 C 163.289062 98.441406 162.019531 96.988281 160.703125 95.589844 C 160.042969 94.894531 159.386719 94.199219 158.703125 93.53125 C 158.035156 92.847656 157.339844 92.199219 156.652344 91.542969 C 155.949219 90.910156 155.253906 90.265625 154.535156 89.660156 C 153.828125 89.039062 153.09375 88.457031 152.371094 87.871094 C 151.628906 87.304688 150.894531 86.730469 150.140625 86.207031 C 149.394531 85.65625 148.621094 85.167969 147.863281 84.664062 C 147.085938 84.191406 146.320312 83.707031 145.53125 83.285156 C 144.757812 82.832031 143.953125 82.460938 143.167969 82.058594 C 142.859375 81.925781 142.234375 81.644531 142.234375 81.644531 L 141.011719 83.335938 C 141.011719 83.335938 139.863281 85.109375 139.277344 85.996094 L 138.847656 86.664062 L 138.453125 87.363281 L 137.667969 88.765625 C 137.121094 89.6875 136.671875 90.667969 136.1875 91.632812 C 135.953125 92.121094 135.695312 92.597656 135.476562 93.09375 L 134.179688 96.085938 L 133.007812 99.152344 C 132.816406 99.664062 132.660156 100.1875 132.484375 100.710938 C 132.140625 101.753906 131.777344 102.792969 131.5 103.859375 C 131.203125 104.921875 130.875 105.980469 130.636719 107.058594 C 130.382812 108.132812 130.09375 109.207031 129.902344 110.292969 C 129.691406 111.382812 129.449219 112.472656 129.300781 113.566406 C 129.125 114.664062 128.941406 115.765625 128.832031 116.867188 L 128.640625 118.527344 L 128.519531 120.183594 C 128.417969 121.296875 128.398438 122.398438 128.371094 123.511719 C 128.316406 124.628906 128.402344 125.722656 128.410156 126.839844 L 125.167969 127.242188 C 124.992188 126.078125 124.738281 124.90625 124.621094 123.734375 C 124.480469 122.558594 124.335938 121.378906 124.277344 120.203125 L 124.15625 118.429688 L 124.101562 116.660156 C 124.050781 115.472656 124.074219 114.296875 124.09375 113.113281 C 124.089844 111.925781 124.171875 110.746094 124.230469 109.5625 C 124.277344 108.375 124.414062 107.199219 124.519531 106.011719 C 124.609375 104.828125 124.789062 103.652344 124.945312 102.472656 C 125.085938 101.289062 125.3125 100.117188 125.523438 98.941406 C 125.632812 98.351562 125.722656 97.757812 125.847656 97.171875 L 126.238281 95.421875 L 126.636719 93.660156 L 127.113281 91.917969 L 127.589844 90.171875 C 127.757812 89.589844 127.960938 89.019531 128.140625 88.441406 C 128.523438 87.289062 128.875 86.121094 129.335938 84.992188 L 130 83.28125 L 130.332031 82.421875 L 130.714844 81.582031 C 131.230469 80.464844 131.695312 79.320312 132.273438 78.222656 C 132.859375 77.125 133.417969 76.011719 134.039062 74.925781 L 136.011719 71.707031 L 138.089844 68.324219 L 142.511719 69.917969 L 142.515625 69.917969 C 143.527344 70.445312 144.550781 70.953125 145.507812 71.546875 C 146.488281 72.105469 147.402344 72.738281 148.328125 73.347656 C 149.21875 74 150.121094 74.632812 150.960938 75.328125 C 151.824219 75.996094 152.628906 76.714844 153.441406 77.421875 C 154.226562 78.152344 155.023438 78.871094 155.765625 79.628906 C 156.527344 80.375 157.238281 81.152344 157.957031 81.921875 C 158.660156 82.710938 159.363281 83.488281 160.023438 84.296875 C 160.703125 85.089844 161.339844 85.914062 161.980469 86.722656 C 162.605469 87.550781 163.230469 88.375 163.824219 89.21875 C 164.433594 90.050781 165.003906 90.902344 165.578125 91.753906 C 166.71875 93.457031 167.789062 95.195312 168.816406 96.957031 C 169.839844 98.714844 170.808594 100.5 171.722656 102.304688 C 172.175781 103.214844 172.628906 104.121094 173.050781 105.042969 C 173.484375 105.964844 173.894531 106.875 174.296875 107.84375 L 171.378906 109.308594 " fill-opacity="1" fill-rule="nonzero"/></g><path fill="rgb(100%, 100%, 100%)" d="M 89.785156 188.980469 C 88.617188 188.839844 87.453125 188.738281 86.257812 188.664062 C 85.074219 188.574219 83.878906 188.535156 82.691406 188.488281 C 81.5 188.457031 80.304688 188.441406 79.117188 188.4375 C 77.925781 188.460938 76.738281 188.457031 75.550781 188.5 L 71.992188 188.664062 L 68.449219 188.945312 C 67.269531 189.054688 66.09375 189.207031 64.925781 189.339844 C 63.75 189.453125 62.585938 189.660156 61.421875 189.835938 C 60.257812 190.019531 59.09375 190.179688 57.945312 190.429688 L 54.5 191.121094 L 51.101562 191.96875 C 50.539062 192.117188 49.972656 192.238281 49.414062 192.402344 L 47.746094 192.914062 C 46.640625 193.261719 45.523438 193.574219 44.429688 193.941406 L 41.183594 195.140625 C 40.644531 195.34375 40.097656 195.519531 39.570312 195.742188 L 39.304688 195.851562 C 39.304688 195.851562 40.164062 198.945312 40.652344 200.480469 C 41.132812 202.023438 41.660156 203.550781 42.199219 205.078125 C 42.746094 206.597656 43.324219 208.105469 43.933594 209.605469 C 44.550781 211.097656 45.1875 212.585938 45.867188 214.050781 C 46.195312 214.789062 46.554688 215.511719 46.910156 216.234375 C 47.261719 216.960938 47.617188 217.6875 48 218.394531 C 48.734375 219.835938 49.539062 221.226562 50.339844 222.625 C 51.179688 224 52.015625 225.375 52.929688 226.695312 C 53.367188 227.371094 53.832031 228.023438 54.308594 228.667969 C 54.789062 229.308594 55.242188 229.980469 55.753906 230.589844 L 57.257812 232.464844 L 58.84375 234.265625 C 59.367188 234.878906 59.949219 235.414062 60.5 235.996094 L 61.339844 236.851562 L 62.222656 237.65625 C 62.820312 238.179688 63.382812 238.761719 64.011719 239.242188 L 65.875 240.742188 C 67.175781 241.65625 68.457031 242.625 69.84375 243.402344 C 71.1875 244.269531 72.640625 244.929688 74.070312 245.648438 C 75.550781 246.246094 77.023438 246.90625 78.570312 247.335938 C 80.085938 247.886719 81.679688 248.152344 83.253906 248.539062 L 82.820312 251.773438 C 81.09375 251.53125 79.332031 251.402344 77.625 250.972656 C 75.890625 250.660156 74.214844 250.109375 72.519531 249.601562 C 70.875 248.972656 69.195312 248.382812 67.617188 247.578125 C 65.992188 246.863281 64.480469 245.941406 62.9375 245.0625 L 60.714844 243.605469 C 59.964844 243.132812 59.285156 242.566406 58.566406 242.050781 L 57.5 241.25 L 56.484375 240.398438 C 55.820312 239.820312 55.109375 239.285156 54.476562 238.667969 L 52.539062 236.863281 L 50.691406 234.96875 C 50.0625 234.347656 49.5 233.671875 48.910156 233.023438 C 48.316406 232.367188 47.734375 231.703125 47.1875 231.019531 C 46.054688 229.667969 45 228.265625 43.941406 226.863281 C 42.925781 225.433594 41.90625 224.003906 40.960938 222.53125 C 40.46875 221.800781 40.011719 221.058594 39.554688 220.3125 C 39.09375 219.566406 38.632812 218.824219 38.199219 218.066406 C 37.308594 216.554688 36.472656 215.023438 35.652344 213.476562 C 34.839844 211.929688 34.058594 210.367188 33.304688 208.789062 C 32.566406 207.203125 31.839844 205.613281 31.15625 204 C 30.46875 202.386719 29.824219 200.757812 29.199219 199.105469 C 28.894531 198.277344 28.589844 197.449219 28.296875 196.609375 L 27.867188 195.332031 C 27.722656 194.886719 27.59375 194.496094 27.441406 193.960938 L 27.441406 193.957031 L 26.402344 188.734375 L 30.8125 187.472656 L 34.523438 186.410156 L 36.375 185.882812 C 36.992188 185.714844 37.621094 185.597656 38.246094 185.449219 L 41.988281 184.625 C 43.238281 184.386719 44.5 184.207031 45.75 183.992188 L 47.625 183.6875 C 48.253906 183.59375 48.886719 183.539062 49.511719 183.46875 L 53.277344 183.050781 L 57.046875 182.8125 C 58.300781 182.710938 59.550781 182.707031 60.804688 182.679688 C 62.058594 182.660156 63.308594 182.609375 64.558594 182.652344 C 65.804688 182.683594 67.054688 182.6875 68.300781 182.742188 L 72.027344 182.949219 L 75.742188 183.28125 C 76.976562 183.398438 78.203125 183.570312 79.433594 183.714844 C 80.664062 183.882812 81.890625 184.066406 83.113281 184.261719 C 84.335938 184.480469 85.554688 184.6875 86.765625 184.941406 C 87.976562 185.179688 89.207031 185.464844 90.417969 185.777344 L 89.785156 188.980469 " fill-opacity="1" fill-rule="nonzero"/><path fill="rgb(100%, 100%, 100%)" d="M 211.566406 176.46875 L 212.910156 172.230469 C 213.046875 171.753906 213.144531 171.28125 213.261719 170.808594 L 213.941406 167.972656 C 214.121094 167.015625 214.269531 166.046875 214.433594 165.09375 L 214.671875 163.65625 L 214.8125 162.203125 C 214.902344 161.238281 215.019531 160.277344 215.078125 159.3125 C 215.121094 157.375 215.234375 155.453125 215.105469 153.523438 C 215.085938 151.601562 214.820312 149.691406 214.640625 147.789062 C 214.320312 145.894531 214.0625 144 213.597656 142.144531 C 213.390625 141.207031 213.191406 140.28125 212.910156 139.363281 C 212.640625 138.445312 212.410156 137.523438 212.113281 136.617188 L 211.203125 133.910156 C 210.886719 133.011719 210.511719 132.128906 210.171875 131.238281 C 209.84375 130.351562 209.441406 129.484375 209.058594 128.613281 C 208.671875 127.742188 208.289062 126.875 207.847656 126.027344 C 207.03125 124.3125 206.109375 122.644531 205.1875 120.984375 L 203.730469 118.53125 C 203.230469 117.722656 202.707031 116.929688 202.199219 116.128906 C 201.148438 114.542969 200.070312 112.980469 198.933594 111.453125 C 197.808594 109.921875 196.636719 108.429688 195.425781 106.96875 C 194.222656 105.503906 192.96875 104.078125 191.699219 102.679688 C 190.410156 101.296875 189.113281 99.925781 187.761719 98.621094 C 187.667969 98.53125 187.484375 98.351562 187.484375 98.351562 L 187.207031 98.621094 C 187.207031 98.621094 184.558594 101.296875 183.269531 102.679688 C 182.003906 104.078125 180.746094 105.503906 179.542969 106.96875 C 178.335938 108.429688 177.160156 109.921875 176.035156 111.453125 C 174.898438 112.980469 173.820312 114.542969 172.773438 116.128906 C 172.265625 116.929688 171.734375 117.722656 171.238281 118.53125 L 169.78125 120.984375 C 168.859375 122.644531 167.941406 124.3125 167.121094 126.027344 C 166.679688 126.875 166.296875 127.742188 165.914062 128.613281 C 165.527344 129.484375 165.125 130.351562 164.792969 131.238281 C 164.457031 132.128906 164.082031 133.011719 163.769531 133.910156 L 162.851562 136.617188 C 162.558594 137.523438 162.328125 138.445312 162.058594 139.363281 C 161.777344 140.28125 161.578125 141.207031 161.371094 142.144531 C 160.910156 144 160.652344 145.894531 160.332031 147.789062 C 160.148438 149.691406 159.882812 151.601562 159.867188 153.523438 C 159.734375 155.453125 159.847656 157.375 159.894531 159.3125 C 159.953125 160.277344 160.070312 161.238281 160.152344 162.203125 L 160.292969 163.65625 L 160.535156 165.09375 C 160.699219 166.046875 160.84375 167.011719 161.027344 167.976562 L 161.710938 170.820312 C 161.832031 171.292969 161.929688 171.777344 162.0625 172.246094 L 162.507812 173.644531 L 163.398438 176.457031 L 162.796875 176.710938 L 161.585938 173.984375 L 160.980469 172.617188 C 160.792969 172.152344 160.636719 171.683594 160.464844 171.214844 L 159.449219 168.390625 C 159.15625 167.433594 158.898438 166.46875 158.621094 165.5 L 158.210938 164.050781 L 157.898438 162.574219 C 157.703125 161.589844 157.46875 160.605469 157.296875 159.609375 C 157.027344 157.613281 156.6875 155.609375 156.597656 153.585938 C 156.398438 151.5625 156.449219 149.53125 156.421875 147.492188 C 156.53125 145.464844 156.589844 143.417969 156.863281 141.390625 C 156.96875 140.378906 157.078125 139.359375 157.265625 138.351562 C 157.441406 137.347656 157.582031 136.328125 157.789062 135.332031 L 158.441406 132.328125 C 158.671875 131.332031 158.964844 130.351562 159.226562 129.359375 C 159.476562 128.363281 159.800781 127.394531 160.109375 126.414062 C 160.417969 125.4375 160.726562 124.457031 161.09375 123.503906 C 161.773438 121.566406 162.558594 119.671875 163.351562 117.777344 L 164.625 114.972656 C 165.0625 114.046875 165.527344 113.136719 165.980469 112.210938 C 166.917969 110.382812 167.890625 108.578125 168.929688 106.804688 C 169.957031 105.027344 171.042969 103.28125 172.171875 101.5625 C 173.289062 99.839844 174.476562 98.152344 175.683594 96.480469 C 176.914062 94.828125 178.160156 93.179688 179.488281 91.578125 C 180.148438 90.773438 180.820312 89.976562 181.511719 89.183594 C 181.851562 88.792969 182.214844 88.398438 182.570312 88.003906 C 182.949219 87.59375 183.273438 87.234375 183.742188 86.765625 L 187.484375 83.015625 L 191.222656 86.765625 C 191.699219 87.234375 192.019531 87.59375 192.394531 88.003906 C 192.75 88.398438 193.117188 88.792969 193.457031 89.183594 C 194.148438 89.976562 194.820312 90.773438 195.484375 91.578125 C 196.808594 93.179688 198.054688 94.828125 199.285156 96.480469 C 200.496094 98.152344 201.675781 99.839844 202.800781 101.5625 C 203.929688 103.28125 205.011719 105.027344 206.039062 106.804688 C 207.078125 108.578125 208.050781 110.382812 208.988281 112.210938 C 209.4375 113.136719 209.910156 114.046875 210.34375 114.972656 L 211.621094 117.777344 C 212.410156 119.671875 213.195312 121.566406 213.875 123.503906 C 214.238281 124.457031 214.554688 125.4375 214.855469 126.414062 C 215.167969 127.394531 215.492188 128.363281 215.742188 129.359375 C 216.003906 130.351562 216.292969 131.332031 216.527344 132.328125 L 217.183594 135.332031 C 217.390625 136.328125 217.53125 137.347656 217.703125 138.351562 C 217.890625 139.359375 217.996094 140.378906 218.109375 141.390625 C 218.378906 143.417969 218.433594 145.464844 218.546875 147.492188 C 218.519531 149.53125 218.574219 151.5625 218.367188 153.585938 C 218.277344 155.609375 217.945312 157.613281 217.671875 159.609375 C 217.5 160.605469 217.269531 161.589844 217.070312 162.574219 L 216.761719 164.050781 L 216.351562 165.5 C 216.074219 166.46875 215.8125 167.433594 215.523438 168.390625 L 214.5 171.226562 C 214.324219 171.699219 214.164062 172.175781 213.980469 172.632812 L 213.378906 173.988281 L 212.179688 176.703125 L 211.566406 176.46875 " fill-opacity="1" fill-rule="nonzero"/><path fill="rgb(100%, 100%, 100%)" d="M 187.484375 250.15625 C 179.03125 250.15625 173.3125 256.625 174.898438 266.222656 C 176.234375 274.28125 180.6875 279.734375 187.484375 279.734375 C 183.382812 279.734375 180.058594 274.878906 180.058594 268.886719 C 180.058594 262.894531 183.382812 258.035156 187.484375 258.035156 C 191.585938 258.035156 194.910156 262.894531 194.910156 268.886719 C 194.910156 274.878906 191.585938 279.734375 187.484375 279.734375 C 194.285156 279.734375 198.738281 274.28125 200.070312 266.222656 C 201.65625 256.625 195.941406 250.15625 187.484375 250.15625 " fill-opacity="1" fill-rule="nonzero"/><path fill="rgb(100%, 100%, 100%)" d="M 188.792969 279.304688 C 188.527344 279.34375 188.265625 279.375 187.996094 279.410156 L 188.042969 280.058594 C 188.289062 280.042969 188.546875 280.035156 188.792969 280.015625 C 188.972656 280.011719 189.148438 279.996094 189.324219 279.984375 C 191.898438 279.804688 194.464844 279.371094 196.980469 278.710938 C 199.898438 277.925781 202.75 276.824219 205.480469 275.484375 C 208.207031 274.144531 210.8125 272.53125 213.28125 270.75 C 215.75 268.960938 218.082031 266.976562 220.277344 264.855469 C 220.835938 264.3125 221.386719 263.761719 221.929688 263.203125 C 223.28125 261.800781 224.578125 260.34375 225.816406 258.828125 C 227.757812 256.484375 229.558594 254.007812 231.222656 251.457031 C 231.40625 251.167969 231.589844 250.886719 231.773438 250.597656 C 232.601562 249.292969 233.398438 247.960938 234.164062 246.609375 C 236.414062 242.621094 238.355469 238.453125 240.011719 234.164062 C 242.226562 228.417969 243.902344 222.453125 245.015625 216.367188 C 246.125 210.277344 246.679688 204.066406 246.660156 197.824219 C 246.632812 191.589844 245.996094 185.328125 244.773438 179.148438 C 243.558594 172.976562 241.6875 166.910156 239.285156 161.050781 L 237.199219 155.957031 L 231.703125 158.050781 C 230.152344 158.808594 228.613281 159.585938 227.101562 160.421875 C 225.589844 161.25 224.097656 162.105469 222.636719 163.027344 C 221.164062 163.925781 219.730469 164.894531 218.320312 165.882812 C 216.917969 166.886719 215.53125 167.90625 214.191406 168.988281 C 208.816406 173.292969 204.007812 178.28125 200.007812 183.792969 C 196 189.300781 192.792969 195.328125 190.484375 201.625 C 189.328125 204.765625 188.398438 207.980469 187.699219 211.234375 C 187.351562 212.863281 187.058594 214.5 186.832031 216.148438 C 186.621094 217.800781 186.457031 219.425781 186.421875 221.152344 L 188.488281 221.28125 C 188.710938 219.765625 189.070312 218.183594 189.464844 216.664062 C 189.871094 215.128906 190.335938 213.613281 190.859375 212.117188 C 191.90625 209.121094 193.15625 206.214844 194.601562 203.421875 C 197.488281 197.832031 201.121094 192.691406 205.347656 188.179688 C 209.574219 183.667969 214.394531 179.789062 219.601562 176.59375 C 220.894531 175.792969 222.234375 175.046875 223.566406 174.316406 C 224.925781 173.613281 226.28125 172.921875 227.667969 172.292969 C 228.734375 171.796875 229.8125 171.332031 230.898438 170.890625 C 232.394531 174.34375 233.667969 177.902344 234.683594 181.550781 C 236.203125 186.96875 237.222656 192.539062 237.6875 198.203125 C 238.148438 203.859375 238.082031 209.585938 237.496094 215.28125 C 236.914062 220.972656 235.785156 226.632812 234.144531 232.152344 C 232.492188 237.679688 230.320312 243.058594 227.613281 248.175781 C 227.4375 248.503906 227.257812 248.828125 227.082031 249.15625 C 226.199219 250.753906 225.269531 252.328125 224.277344 253.871094 C 222.863281 256.082031 221.324219 258.226562 219.667969 260.269531 C 219.066406 261.019531 218.4375 261.757812 217.796875 262.484375 C 217.144531 263.222656 216.472656 263.945312 215.789062 264.652344 C 214.457031 266.03125 213.054688 267.347656 211.59375 268.59375 C 209.371094 270.476562 207.019531 272.207031 204.507812 273.6875 C 202 275.171875 199.34375 276.445312 196.582031 277.425781 C 194.132812 278.273438 191.589844 278.902344 189.007812 279.277344 C 188.9375 279.285156 188.863281 279.296875 188.792969 279.304688 " fill-opacity="1" fill-rule="nonzero"/><g clip-path="url(#clip-2)"><path fill="rgb(100%, 100%, 100%)" d="M 187.605469 279.757812 L 187.78125 279.949219 C 187.796875 279.964844 187.800781 279.976562 187.816406 279.988281 C 189.050781 281.421875 190.457031 282.679688 191.953125 283.824219 C 193.457031 284.984375 195.066406 286.011719 196.71875 286.941406 C 200.03125 288.804688 203.539062 290.277344 207.105469 291.546875 C 210.679688 292.824219 214.328125 293.84375 218.007812 294.726562 C 221.691406 295.605469 225.410156 296.316406 229.144531 296.90625 C 236.625 298.09375 244.171875 298.785156 251.738281 299.117188 C 259.292969 299.4375 266.878906 299.378906 274.457031 298.984375 C 289.601562 298.175781 304.734375 296.035156 319.570312 292.136719 C 326.976562 290.167969 334.3125 287.753906 341.46875 284.707031 C 348.613281 281.648438 355.597656 277.960938 362.105469 273.3125 L 374.902344 263.390625 L 358.753906 263.332031 L 353.226562 263.3125 C 352.304688 263.300781 351.371094 263.34375 350.464844 263.273438 L 347.71875 263.078125 C 344.039062 262.90625 340.433594 262.332031 336.816406 261.738281 L 331.449219 260.570312 L 326.128906 259.066406 L 320.84375 257.273438 L 315.558594 255.242188 L 310.222656 253.078125 C 308.414062 252.347656 306.636719 251.605469 304.800781 250.898438 C 302.949219 250.207031 301.148438 249.457031 299.269531 248.816406 L 296.445312 247.855469 C 295.503906 247.542969 294.570312 247.207031 293.601562 246.949219 L 290.722656 246.132812 C 289.757812 245.878906 288.816406 245.550781 287.828125 245.367188 C 285.875 244.953125 283.921875 244.515625 281.96875 244.125 L 276.050781 243.265625 C 275.078125 243.097656 274.066406 243.058594 273.066406 242.976562 L 270.058594 242.757812 C 269.058594 242.691406 268.046875 242.601562 267.070312 242.558594 L 264.171875 242.546875 L 259.832031 242.527344 L 259.019531 242.527344 C 258.832031 242.519531 258.941406 242.527344 258.882812 242.527344 L 258.835938 242.527344 L 258.652344 242.539062 L 258.28125 242.558594 C 256.296875 242.65625 254.316406 242.730469 252.34375 242.960938 C 250.371094 243.113281 248.410156 243.429688 246.453125 243.710938 C 242.550781 244.378906 238.691406 245.230469 234.910156 246.375 L 234.164062 246.609375 C 231.765625 247.367188 229.40625 248.214844 227.082031 249.15625 C 226.199219 250.753906 225.269531 252.328125 224.277344 253.871094 C 224.5625 253.753906 224.839844 253.640625 225.121094 253.539062 C 227.136719 252.765625 229.171875 252.074219 231.222656 251.457031 C 232.785156 250.980469 234.359375 250.546875 235.941406 250.15625 C 239.605469 249.265625 243.328125 248.664062 247.0625 248.234375 C 248.941406 248.082031 250.808594 247.882812 252.691406 247.84375 C 254.558594 247.734375 256.4375 247.773438 258.316406 247.785156 L 258.890625 247.785156 L 258.933594 247.789062 L 259.65625 247.832031 L 261.105469 247.921875 L 263.992188 248.097656 L 266.878906 248.269531 C 267.820312 248.359375 268.726562 248.503906 269.648438 248.621094 L 272.402344 248.980469 C 273.320312 249.109375 274.234375 249.1875 275.15625 249.40625 L 280.644531 250.515625 L 286.03125 251.992188 C 286.933594 252.203125 287.800781 252.566406 288.691406 252.851562 L 291.332031 253.765625 C 292.21875 254.046875 293.082031 254.417969 293.949219 254.765625 L 296.554688 255.824219 C 298.285156 256.523438 300.007812 257.351562 301.738281 258.109375 L 312.1875 263.03125 L 317.582031 265.464844 L 323.136719 267.707031 L 328.859375 269.679688 C 330.800781 270.242188 332.765625 270.761719 334.71875 271.308594 C 337.390625 271.910156 340.085938 272.492188 342.792969 272.9375 C 341.015625 273.9375 339.203125 274.898438 337.363281 275.8125 C 330.902344 279.019531 324.117188 281.710938 317.164062 284 C 303.242188 288.539062 288.683594 291.484375 273.976562 293.128906 C 266.617188 293.9375 259.214844 294.429688 251.792969 294.546875 C 244.378906 294.652344 236.953125 294.402344 229.566406 293.667969 C 225.871094 293.304688 222.195312 292.8125 218.546875 292.167969 C 214.890625 291.519531 211.257812 290.726562 207.707031 289.6875 C 204.152344 288.644531 200.644531 287.410156 197.335938 285.785156 C 195.667969 284.972656 194.046875 284.070312 192.527344 283.03125 C 191.78125 282.523438 191.054688 281.988281 190.355469 281.414062 C 189.8125 280.972656 189.296875 280.507812 188.792969 280.015625 C 188.695312 279.933594 188.597656 279.832031 188.5 279.734375 C 188.488281 279.722656 187.605469 279.757812 187.605469 279.757812 " fill-opacity="1" fill-rule="nonzero"/></g><path fill="rgb(100%, 100%, 100%)" d="M 187.507812 279.816406 L 187.816406 279.988281 L 187.851562 280.011719 L 190.355469 281.414062 L 191.449219 282.027344 C 192.035156 282.386719 192.667969 282.660156 193.289062 282.957031 L 195.148438 283.835938 C 196.386719 284.457031 197.671875 284.933594 198.953125 285.429688 L 200.875 286.179688 C 201.515625 286.421875 202.171875 286.613281 202.828125 286.824219 L 204.789062 287.460938 L 205.765625 287.773438 L 206.765625 288.035156 L 210.757812 289.054688 L 214.785156 289.878906 C 216.132812 290.152344 217.5 290.308594 218.851562 290.53125 C 220.203125 290.761719 221.570312 290.898438 222.933594 291.03125 C 224.296875 291.183594 225.660156 291.339844 227.027344 291.40625 C 228.394531 291.484375 229.769531 291.609375 231.128906 291.648438 L 235.25 291.75 C 237.984375 291.746094 240.730469 291.746094 243.464844 291.601562 L 245.515625 291.511719 L 247.566406 291.371094 C 248.933594 291.261719 250.308594 291.199219 251.664062 291.046875 L 255.753906 290.632812 L 259.832031 290.125 C 262.542969 289.742188 265.25 289.347656 267.949219 288.859375 C 269.296875 288.628906 270.648438 288.382812 271.988281 288.113281 C 273.332031 287.847656 274.679688 287.589844 276.011719 287.289062 C 278.6875 286.730469 281.355469 286.101562 284.015625 285.441406 C 289.332031 284.117188 294.597656 282.609375 299.804688 280.910156 C 302.410156 280.070312 304.992188 279.15625 307.550781 278.195312 C 310.105469 277.214844 312.664062 276.230469 315.078125 274.929688 C 312.273438 274.644531 309.445312 274.507812 306.667969 274.007812 C 305.273438 273.796875 303.871094 273.617188 302.503906 273.289062 L 300.429688 272.847656 C 299.742188 272.703125 299.050781 272.558594 298.378906 272.355469 C 297.019531 271.972656 295.648438 271.644531 294.304688 271.214844 C 292.964844 270.761719 291.617188 270.351562 290.292969 269.875 C 288.972656 269.386719 287.636719 268.914062 286.324219 268.398438 L 282.386719 266.851562 C 279.765625 265.808594 277.140625 264.769531 274.480469 263.828125 C 271.824219 262.867188 269.121094 262.046875 266.398438 261.300781 L 262.28125 260.296875 L 258.113281 259.519531 C 256.730469 259.226562 255.316406 259.101562 253.917969 258.910156 C 252.511719 258.75 251.121094 258.5 249.710938 258.433594 C 246.890625 258.234375 244.066406 257.964844 241.25 257.953125 L 237.015625 257.847656 C 235.59375 257.867188 234.183594 257.867188 232.769531 257.984375 C 230.445312 258.128906 228.113281 258.402344 225.816406 258.828125 C 225.332031 258.917969 224.839844 259.011719 224.359375 259.113281 C 222.785156 259.441406 221.214844 259.824219 219.667969 260.269531 C 219.066406 261.019531 218.4375 261.757812 217.796875 262.484375 C 217.144531 263.222656 216.472656 263.945312 215.789062 264.652344 C 216.25 264.515625 216.722656 264.382812 217.191406 264.261719 C 218.757812 263.84375 220.339844 263.488281 221.929688 263.203125 C 222.984375 263.003906 224.042969 262.839844 225.109375 262.699219 C 227.757812 262.339844 230.421875 262.203125 233.058594 262.238281 C 233.714844 262.242188 234.371094 262.242188 235.03125 262.292969 L 236.019531 262.355469 L 236.507812 262.378906 L 236.703125 262.394531 L 236.710938 262.394531 L 236.777344 262.402344 L 236.914062 262.414062 L 241.132812 262.816406 C 242.527344 262.96875 244.003906 263.050781 245.289062 263.285156 L 249.242188 263.878906 C 250.554688 264.042969 251.882812 264.382812 253.195312 264.632812 C 254.507812 264.917969 255.828125 265.136719 257.105469 265.507812 L 260.949219 266.53125 L 264.703125 267.753906 C 267.179688 268.640625 269.621094 269.59375 272.058594 270.6875 C 274.503906 271.765625 276.949219 272.949219 279.492188 274.179688 L 283.390625 276.03125 C 283.929688 276.289062 284.476562 276.53125 285.03125 276.777344 C 284.0625 277.109375 283.097656 277.46875 282.125 277.796875 C 279.605469 278.628906 277.066406 279.429688 274.515625 280.171875 C 273.242188 280.5625 271.953125 280.90625 270.671875 281.265625 C 269.394531 281.621094 268.101562 281.964844 266.816406 282.285156 C 264.230469 282.957031 261.640625 283.535156 259.035156 284.105469 L 255.113281 284.902344 L 251.183594 285.601562 C 249.867188 285.847656 248.550781 286.003906 247.226562 286.214844 L 245.25 286.503906 L 243.265625 286.734375 C 240.617188 287.082031 237.964844 287.277344 235.300781 287.488281 L 231.300781 287.683594 C 229.96875 287.746094 228.640625 287.726562 227.304688 287.753906 C 225.964844 287.789062 224.632812 287.734375 223.300781 287.699219 C 221.960938 287.65625 220.621094 287.625 219.292969 287.5 C 217.972656 287.382812 216.617188 287.332031 215.296875 287.160156 L 211.304688 286.660156 L 207.347656 285.953125 L 206.355469 285.777344 L 205.375 285.539062 L 203.414062 285.066406 C 202.761719 284.902344 202.101562 284.761719 201.453125 284.582031 L 199.519531 283.988281 C 198.234375 283.585938 196.925781 283.214844 195.679688 282.691406 L 193.78125 281.96875 C 193.144531 281.71875 192.5 281.492188 191.898438 281.183594 L 189.324219 279.984375 L 188.597656 279.644531 L 187.507812 279.816406 " fill-opacity="1" fill-rule="nonzero"/><path fill="rgb(100%, 100%, 100%)" d="M 212.734375 176.636719 C 213.21875 174.675781 213.871094 172.742188 214.601562 170.847656 C 215.332031 168.949219 216.15625 167.09375 217.035156 165.269531 C 217.496094 164.367188 217.929688 163.453125 218.425781 162.570312 L 219.148438 161.238281 L 219.914062 159.929688 C 220.929688 158.1875 222.03125 156.496094 223.171875 154.839844 C 224.320312 153.191406 225.527344 151.585938 226.792969 150.027344 C 227.402344 149.238281 228.082031 148.496094 228.730469 147.734375 C 229.371094 146.964844 230.0625 146.242188 230.746094 145.511719 L 231.769531 144.421875 L 232.835938 143.371094 C 233.554688 142.679688 234.234375 141.957031 234.988281 141.300781 L 237.210938 139.3125 L 239.511719 137.417969 C 240.269531 136.777344 241.089844 136.210938 241.871094 135.609375 L 243.058594 134.714844 C 243.460938 134.425781 243.875 134.15625 244.285156 133.875 C 245.105469 133.320312 245.910156 132.75 246.742188 132.210938 L 249.265625 130.65625 C 250.09375 130.121094 250.972656 129.664062 251.835938 129.183594 C 252.703125 128.714844 253.542969 128.203125 254.433594 127.769531 C 256.210938 126.910156 257.945312 125.988281 259.773438 125.230469 L 262.476562 124.058594 L 265.238281 123 C 267.054688 122.257812 268.957031 121.707031 270.8125 121.066406 C 271.738281 120.742188 272.699219 120.5 273.644531 120.230469 L 276.972656 119.308594 C 277.941406 122.46875 277.367188 120.550781 278.199219 123.742188 C 279.070312 126.933594 279.816406 130.140625 280.527344 133.355469 C 280.855469 134.96875 281.183594 136.582031 281.492188 138.203125 C 281.757812 139.824219 282.078125 141.4375 282.304688 143.066406 C 282.535156 144.691406 282.808594 146.316406 282.976562 147.949219 C 283.164062 149.574219 283.363281 151.207031 283.476562 152.839844 L 283.683594 155.292969 L 283.804688 157.746094 C 283.839844 158.5625 283.898438 159.382812 283.917969 160.199219 L 283.949219 162.652344 C 284 164.292969 283.933594 165.921875 283.894531 167.558594 C 283.886719 169.199219 283.722656 170.816406 283.628906 172.453125 L 283.542969 173.675781 L 283.410156 174.890625 L 283.140625 177.324219 C 283.066406 178.140625 282.925781 178.941406 282.796875 179.746094 L 282.417969 182.164062 C 282.144531 183.773438 281.765625 185.359375 281.449219 186.964844 C 281.074219 188.550781 280.625 190.117188 280.222656 191.703125 C 279.746094 193.261719 279.230469 194.808594 278.734375 196.363281 L 276.980469 200.941406 L 274.960938 205.40625 L 272.667969 209.753906 L 270.117188 213.960938 C 269.214844 215.328125 268.25 216.664062 267.316406 218.019531 C 266.863281 218.710938 266.308594 219.320312 265.8125 219.976562 L 264.273438 221.914062 C 264.015625 222.234375 263.769531 222.566406 263.496094 222.878906 L 261.011719 225.640625 C 259.9375 226.902344 258.71875 228.027344 257.542969 229.191406 L 255.769531 230.9375 L 253.890625 232.574219 C 251.433594 234.820312 248.757812 236.804688 246.105469 238.835938 L 241.972656 241.675781 L 240.9375 242.382812 L 239.863281 243.035156 L 237.71875 244.34375 L 235.570312 245.652344 C 234.855469 246.09375 234.101562 246.460938 233.367188 246.871094 L 228.9375 249.269531 L 229.777344 251.042969 L 234.40625 248.867188 C 235.171875 248.496094 235.957031 248.160156 236.714844 247.757812 L 238.972656 246.546875 L 241.234375 245.339844 L 242.363281 244.730469 L 243.460938 244.070312 L 247.859375 241.402344 C 250.695312 239.472656 253.566406 237.582031 256.242188 235.402344 L 258.285156 233.8125 L 260.230469 232.109375 C 261.519531 230.960938 262.855469 229.859375 264.050781 228.609375 L 265.894531 226.777344 L 266.816406 225.859375 C 267.121094 225.546875 267.398438 225.21875 267.691406 224.898438 L 269.421875 222.949219 C 269.984375 222.292969 270.601562 221.675781 271.121094 220.976562 C 272.1875 219.605469 273.285156 218.25 274.324219 216.851562 C 275.3125 215.417969 276.3125 213.988281 277.285156 212.539062 L 279.984375 208.046875 L 282.414062 203.394531 L 284.566406 198.605469 C 285.191406 196.972656 285.84375 195.34375 286.445312 193.695312 C 286.976562 192.027344 287.546875 190.367188 288.046875 188.6875 C 288.488281 186.992188 288.984375 185.308594 289.375 183.601562 L 289.929688 181.03125 C 290.113281 180.175781 290.316406 179.320312 290.445312 178.453125 L 290.882812 175.863281 L 291.097656 174.566406 L 291.261719 173.269531 C 291.464844 171.53125 291.734375 169.792969 291.84375 168.046875 C 291.980469 166.308594 292.148438 164.5625 292.195312 162.816406 L 292.308594 160.195312 C 292.34375 159.324219 292.328125 158.453125 292.339844 157.578125 L 292.351562 154.957031 L 292.28125 152.34375 C 292.253906 150.597656 292.148438 148.859375 292.042969 147.121094 C 291.960938 145.375 291.769531 143.648438 291.628906 141.910156 C 291.480469 140.171875 291.242188 138.453125 291.054688 136.722656 C 290.828125 135 290.578125 133.28125 290.324219 131.5625 C 289.769531 128.132812 289.171875 124.707031 288.453125 121.320312 C 287.765625 117.921875 286.953125 114.558594 286.125 111.199219 L 284.820312 105.90625 L 279.335938 107.347656 C 277.316406 108.0625 275.289062 108.742188 273.285156 109.480469 L 270.308594 110.671875 C 269.316406 111.074219 268.316406 111.445312 267.351562 111.90625 C 265.410156 112.808594 263.441406 113.625 261.550781 114.636719 L 258.699219 116.09375 L 255.910156 117.675781 C 254.035156 118.695312 252.253906 119.890625 250.453125 121.019531 C 249.550781 121.585938 248.695312 122.234375 247.820312 122.835938 C 246.949219 123.449219 246.066406 124.039062 245.234375 124.710938 L 242.710938 126.664062 C 241.886719 127.335938 241.082031 128.039062 240.269531 128.722656 C 239.867188 129.070312 239.460938 129.402344 239.0625 129.761719 L 237.894531 130.847656 C 237.128906 131.582031 236.324219 132.269531 235.589844 133.035156 L 233.367188 135.308594 L 231.242188 137.660156 C 230.523438 138.433594 229.878906 139.277344 229.199219 140.082031 L 228.199219 141.308594 L 227.246094 142.570312 C 226.609375 143.410156 225.96875 144.246094 225.382812 145.121094 C 224.789062 145.992188 224.167969 146.835938 223.621094 147.730469 C 222.472656 149.492188 221.402344 151.292969 220.394531 153.128906 C 219.394531 154.964844 218.449219 156.828125 217.59375 158.730469 L 216.953125 160.152344 L 216.355469 161.601562 C 215.945312 162.554688 215.601562 163.539062 215.226562 164.507812 C 214.53125 166.464844 213.890625 168.441406 213.355469 170.441406 C 212.824219 172.445312 212.371094 174.464844 212.089844 176.527344 L 212.734375 176.636719 " fill-opacity="1" fill-rule="nonzero"/><g clip-path="url(#clip-3)"><path fill="rgb(100%, 100%, 100%)" d="M 203.589844 109.308594 C 204.085938 108.515625 204.632812 107.691406 205.179688 106.898438 C 205.726562 106.097656 206.296875 105.304688 206.867188 104.519531 C 208.019531 102.953125 209.214844 101.425781 210.445312 99.933594 C 211.679688 98.441406 212.949219 96.988281 214.265625 95.589844 C 214.925781 94.894531 215.582031 94.199219 216.265625 93.53125 C 216.933594 92.847656 217.628906 92.199219 218.316406 91.542969 C 219.019531 90.910156 219.710938 90.265625 220.433594 89.660156 C 221.136719 89.039062 221.875 88.457031 222.601562 87.871094 C 223.339844 87.304688 224.074219 86.730469 224.828125 86.207031 C 225.570312 85.65625 226.347656 85.167969 227.109375 84.664062 C 227.882812 84.191406 228.644531 83.707031 229.4375 83.285156 C 230.210938 82.832031 231.015625 82.460938 231.800781 82.058594 C 232.113281 81.925781 232.730469 81.644531 232.730469 81.644531 L 233.957031 83.335938 C 233.957031 83.335938 235.105469 85.109375 235.691406 85.996094 L 236.121094 86.664062 L 236.515625 87.363281 L 237.300781 88.765625 C 237.847656 89.6875 238.300781 90.667969 238.78125 91.632812 C 239.015625 92.121094 239.273438 92.597656 239.492188 93.09375 L 240.140625 94.589844 L 240.792969 96.085938 L 241.375 97.617188 L 241.957031 99.152344 C 242.152344 99.664062 242.304688 100.1875 242.484375 100.710938 C 242.832031 101.753906 243.1875 102.792969 243.472656 103.859375 C 243.769531 104.921875 244.097656 105.980469 244.332031 107.058594 C 244.585938 108.132812 244.871094 109.207031 245.070312 110.292969 C 245.28125 111.382812 245.519531 112.472656 245.671875 113.566406 C 245.84375 114.664062 246.027344 115.765625 246.132812 116.867188 L 246.324219 118.527344 L 246.449219 120.183594 C 246.550781 121.296875 246.574219 122.398438 246.597656 123.511719 C 246.648438 124.628906 246.570312 125.722656 246.558594 126.839844 L 249.800781 127.242188 C 249.980469 126.078125 250.234375 124.90625 250.347656 123.734375 C 250.492188 122.558594 250.636719 121.378906 250.695312 120.203125 L 250.816406 118.429688 L 250.867188 116.660156 C 250.917969 115.472656 250.894531 114.296875 250.878906 113.113281 C 250.882812 111.925781 250.796875 110.746094 250.738281 109.5625 C 250.695312 108.375 250.554688 107.199219 250.449219 106.011719 C 250.359375 104.828125 250.175781 103.652344 250.023438 102.472656 C 249.882812 101.289062 249.660156 100.117188 249.449219 98.941406 C 249.339844 98.351562 249.25 97.757812 249.121094 97.171875 L 248.726562 95.421875 L 248.332031 93.660156 L 247.859375 91.917969 L 247.378906 90.171875 C 247.214844 89.589844 247.011719 89.019531 246.828125 88.441406 C 246.445312 87.289062 246.09375 86.121094 245.628906 84.992188 L 244.96875 83.28125 L 244.632812 82.421875 L 244.257812 81.582031 C 243.734375 80.464844 243.273438 79.320312 242.695312 78.222656 C 242.109375 77.125 241.554688 76.011719 240.933594 74.925781 L 238.957031 71.707031 L 236.878906 68.324219 L 232.457031 69.917969 L 232.453125 69.917969 C 231.441406 70.445312 230.414062 70.953125 229.464844 71.546875 C 228.480469 72.105469 227.566406 72.738281 226.640625 73.347656 C 225.75 74 224.847656 74.632812 224.007812 75.328125 C 223.144531 75.996094 222.339844 76.714844 221.527344 77.421875 C 220.742188 78.152344 219.945312 78.871094 219.203125 79.628906 C 218.441406 80.375 217.726562 81.152344 217.007812 81.921875 C 216.308594 82.710938 215.605469 83.488281 214.945312 84.296875 C 214.269531 85.089844 213.632812 85.914062 212.988281 86.722656 C 212.363281 87.550781 211.738281 88.375 211.140625 89.21875 C 210.539062 90.050781 209.960938 90.902344 209.390625 91.753906 C 208.25 93.457031 207.179688 95.195312 206.152344 96.957031 C 205.132812 98.714844 204.164062 100.5 203.246094 102.304688 C 202.789062 103.214844 202.34375 104.121094 201.914062 105.042969 C 201.484375 105.964844 201.074219 106.875 200.671875 107.84375 L 203.589844 109.308594 " fill-opacity="1" fill-rule="nonzero"/></g><path fill="rgb(100%, 100%, 100%)" d="M 285.183594 188.980469 C 286.351562 188.839844 287.519531 188.738281 288.710938 188.664062 C 289.898438 188.574219 291.089844 188.535156 292.277344 188.488281 C 293.46875 188.457031 294.660156 188.441406 295.851562 188.4375 C 297.042969 188.460938 298.230469 188.457031 299.417969 188.5 L 302.976562 188.664062 L 306.519531 188.945312 C 307.699219 189.054688 308.875 189.207031 310.046875 189.339844 C 311.222656 189.453125 312.382812 189.660156 313.546875 189.835938 C 314.710938 190.019531 315.871094 190.179688 317.023438 190.429688 L 320.464844 191.121094 L 323.867188 191.96875 C 324.429688 192.117188 325 192.238281 325.554688 192.402344 L 327.222656 192.914062 C 328.332031 193.261719 329.445312 193.574219 330.539062 193.941406 L 333.785156 195.140625 C 334.324219 195.34375 334.867188 195.519531 335.398438 195.742188 L 335.667969 195.851562 C 335.667969 195.851562 334.804688 198.945312 334.3125 200.480469 C 333.835938 202.023438 333.3125 203.550781 332.769531 205.078125 C 332.21875 206.597656 331.644531 208.105469 331.035156 209.605469 C 330.417969 211.097656 329.785156 212.585938 329.101562 214.050781 C 328.773438 214.789062 328.417969 215.511719 328.058594 216.234375 C 327.710938 216.960938 327.351562 217.6875 326.96875 218.394531 C 326.234375 219.835938 325.429688 221.226562 324.628906 222.625 C 323.789062 224 322.953125 225.375 322.039062 226.695312 C 321.601562 227.371094 321.132812 228.023438 320.65625 228.667969 C 320.179688 229.308594 319.726562 229.980469 319.214844 230.589844 L 317.714844 232.464844 L 316.125 234.265625 C 315.605469 234.878906 315.015625 235.414062 314.46875 235.996094 L 313.628906 236.851562 L 312.75 237.65625 C 312.148438 238.179688 311.585938 238.761719 310.953125 239.242188 L 309.09375 240.742188 C 307.792969 241.65625 306.515625 242.625 305.125 243.402344 C 303.777344 244.269531 302.328125 244.929688 300.894531 245.648438 C 299.417969 246.246094 297.949219 246.90625 296.398438 247.335938 C 294.882812 247.886719 293.292969 248.152344 291.714844 248.539062 L 292.148438 251.773438 C 293.875 251.53125 295.636719 251.402344 297.34375 250.972656 C 299.082031 250.660156 300.753906 250.109375 302.449219 249.601562 C 304.097656 248.972656 305.777344 248.382812 307.351562 247.578125 C 308.976562 246.863281 310.492188 245.941406 312.03125 245.0625 L 314.253906 243.605469 C 315.007812 243.132812 315.683594 242.566406 316.402344 242.050781 L 317.464844 241.25 L 318.480469 240.398438 C 319.148438 239.820312 319.863281 239.285156 320.492188 238.667969 L 322.429688 236.863281 L 324.277344 234.96875 C 324.90625 234.347656 325.472656 233.671875 326.0625 233.023438 C 326.652344 232.367188 327.234375 231.703125 327.78125 231.019531 C 328.914062 229.667969 329.96875 228.265625 331.027344 226.863281 C 332.042969 225.433594 333.066406 224.003906 334.007812 222.53125 C 334.496094 221.800781 334.960938 221.058594 335.417969 220.3125 C 335.875 219.566406 336.339844 218.824219 336.765625 218.066406 C 337.660156 216.554688 338.496094 215.023438 339.320312 213.476562 C 340.128906 211.929688 340.914062 210.367188 341.664062 208.789062 C 342.40625 207.203125 343.128906 205.613281 343.8125 204 C 344.5 202.386719 345.144531 200.757812 345.769531 199.105469 C 346.074219 198.277344 346.378906 197.449219 346.671875 196.609375 L 347.101562 195.332031 C 347.246094 194.886719 347.375 194.496094 347.53125 193.960938 L 347.53125 193.957031 L 348.566406 188.734375 L 344.160156 187.472656 L 340.445312 186.410156 L 338.59375 185.882812 C 337.976562 185.714844 337.34375 185.597656 336.722656 185.449219 L 332.980469 184.625 C 331.730469 184.386719 330.46875 184.207031 329.21875 183.992188 L 327.34375 183.6875 C 326.714844 183.59375 326.082031 183.539062 325.453125 183.46875 L 321.691406 183.050781 L 317.925781 182.8125 C 316.671875 182.710938 315.414062 182.707031 314.160156 182.679688 C 312.910156 182.660156 311.664062 182.609375 310.410156 182.652344 C 309.160156 182.683594 307.914062 182.6875 306.667969 182.742188 L 302.941406 182.949219 L 299.226562 183.28125 C 297.996094 183.398438 296.761719 183.570312 295.53125 183.714844 C 294.304688 183.882812 293.082031 184.066406 291.859375 184.261719 C 290.636719 184.480469 289.414062 184.6875 288.199219 184.941406 C 286.992188 185.179688 285.761719 185.464844 284.546875 185.777344 L 285.183594 188.980469 " fill-opacity="1" fill-rule="nonzero"/><path fill="rgb(100%, 100%, 100%)" d="M 204.636719 254.824219 C 204.597656 255.390625 204.558594 255.957031 204.515625 256.527344 C 204.449219 257.125 204.363281 257.785156 204.289062 258.328125 C 203.691406 262.957031 202.34375 267.8125 199.667969 272 C 198.988281 273.039062 198.242188 274.046875 197.390625 274.96875 C 196.519531 275.867188 195.5625 276.691406 194.523438 277.40625 C 193.496094 278.136719 192.332031 278.675781 191.125 279.058594 C 189.949219 279.429688 188.714844 279.632812 187.484375 279.648438 C 186.253906 279.632812 185.015625 279.429688 183.84375 279.058594 C 182.636719 278.675781 181.476562 278.136719 180.445312 277.40625 C 179.402344 276.691406 178.449219 275.867188 177.578125 274.96875 C 176.726562 274.046875 175.980469 273.039062 175.300781 272 C 172.625 267.8125 171.277344 262.957031 170.679688 258.328125 C 170.605469 257.785156 170.519531 257.125 170.453125 256.527344 C 170.414062 255.957031 170.371094 255.390625 170.328125 254.824219 C 170.261719 253.675781 170.234375 252.550781 170.238281 251.445312 C 170.257812 249.234375 170.421875 247.113281 170.734375 245.140625 C 171.042969 243.171875 171.507812 241.351562 172.097656 239.753906 C 172.636719 238.152344 173.355469 236.792969 174.046875 235.683594 C 174.757812 234.570312 175.535156 233.761719 176.238281 233.128906 C 176.960938 232.503906 177.6875 232.109375 178.359375 231.742188 C 178.703125 231.574219 179.054688 231.429688 179.40625 231.300781 C 179.761719 231.175781 180.121094 231.074219 180.464844 230.953125 C 181.171875 230.734375 181.894531 230.582031 182.585938 230.476562 C 183.285156 230.394531 183.9375 230.28125 184.539062 230.226562 C 185.128906 230.175781 185.695312 230.144531 186.085938 230.136719 C 186.265625 230.132812 186.425781 230.128906 186.5625 230.128906 C 186.792969 230.128906 186.984375 230.128906 187.140625 230.128906 C 187.292969 230.128906 187.40625 230.128906 187.484375 230.128906 C 187.566406 230.128906 187.679688 230.128906 187.828125 230.128906 C 187.988281 230.128906 188.175781 230.128906 188.40625 230.128906 C 188.542969 230.128906 188.703125 230.132812 188.882812 230.136719 C 189.277344 230.144531 189.839844 230.175781 190.429688 230.226562 C 191.03125 230.28125 191.679688 230.394531 192.378906 230.476562 C 193.074219 230.582031 193.796875 230.734375 194.503906 230.953125 C 194.84375 231.074219 195.210938 231.175781 195.5625 231.300781 C 195.914062 231.429688 196.265625 231.574219 196.613281 231.742188 C 197.285156 232.109375 198.003906 232.503906 198.730469 233.128906 C 199.433594 233.761719 200.214844 234.570312 200.921875 235.683594 C 201.613281 236.792969 202.335938 238.152344 202.875 239.753906 C 203.457031 241.351562 203.925781 243.171875 204.238281 245.140625 C 204.546875 247.113281 204.714844 249.234375 204.726562 251.445312 C 204.734375 252.550781 204.707031 253.675781 204.636719 254.824219 Z M 208.347656 232.945312 C 207.65625 231.101562 206.753906 229.429688 205.679688 227.992188 C 204.609375 226.558594 203.371094 225.363281 202.09375 224.414062 C 199.515625 222.507812 196.824219 221.585938 194.613281 221.066406 C 192.378906 220.554688 190.578125 220.425781 189.359375 220.367188 C 188.75 220.339844 188.28125 220.324219 187.964844 220.328125 C 187.648438 220.324219 187.484375 220.324219 187.484375 220.324219 C 187.484375 220.324219 187.320312 220.324219 187.003906 220.328125 C 186.691406 220.324219 186.21875 220.339844 185.609375 220.367188 C 184.386719 220.425781 182.585938 220.554688 180.359375 221.066406 C 178.144531 221.585938 175.453125 222.507812 172.875 224.414062 C 171.597656 225.363281 170.359375 226.558594 169.289062 227.992188 C 168.214844 229.429688 167.308594 231.101562 166.625 232.945312 C 165.246094 236.632812 164.742188 240.949219 164.953125 245.4375 C 165.171875 249.929688 166.074219 254.628906 167.554688 259.300781 C 168.296875 261.644531 169.175781 263.984375 170.273438 266.269531 C 171.363281 268.546875 172.667969 270.777344 174.265625 272.820312 C 175.859375 274.859375 177.761719 276.71875 180.023438 278.101562 C 182.238281 279.464844 184.832031 280.304688 187.484375 280.304688 C 190.132812 280.304688 192.730469 279.464844 194.945312 278.101562 C 197.203125 276.71875 199.113281 274.859375 200.707031 272.820312 C 202.300781 270.777344 203.605469 268.546875 204.699219 266.269531 C 205.792969 263.984375 206.675781 261.644531 207.414062 259.300781 C 208.898438 254.628906 209.800781 249.929688 210.011719 245.4375 C 210.226562 240.949219 209.726562 236.632812 208.347656 232.945312 " fill-opacity="1" fill-rule="nonzero"/></svg>